<svg xmlns="http://www.w3.org/2000/svg" viewBox="0 0 1239.62 1239.62"><defs><style>.cls-1{fill:#fff;}.cls-2{fill:#e94553;}.cls-3{fill:#ea5164;}.cls-4{fill:#b35a75;}.cls-5{fill:#5b669e;}.cls-6{fill:#214f8f;}.cls-7{fill:#3864a3;}.cls-8{fill:#7c6491;}.cls-9{fill:#906389;}</style></defs><title>CorrelAid X-Icon_white</title><g id="Ebene_2" data-name="Ebene 2"><g id="_02-c_CorrelAid_X_ICON" data-name="02-c_CorrelAid X_ICON"><g id="White"><rect id="_Quadrat_white_" data-name="&lt;Quadrat_white&gt;" class="cls-1" width="1239.62" height="1239.62"/><g id="Outline_X"><polygon class="cls-1" points="1023.06 353.63 988.66 388.05 1023.06 422.45 1023.06 487.8 957.35 487.8 922.95 453.38 888.52 487.8 822.71 487.8 822.71 421.24 857.14 386.82 822.71 352.42 822.71 285.31 889.82 285.31 924.24 319.73 958.66 285.31 1023.06 285.31 1023.06 353.63"/></g><path id="X" class="cls-2" d="M917.18,386.56l-86.33,86.32V425l.12-.08.08-.12,37.64-37.62-37.64-37.64-.12-.08-.08-.12V300.23Zm5.71,5.71-88.18,88.17,0,0H885.2l.13-.08.08-.12,37.64-37.64,37.62,37.64.1.08.1.12h50.23Zm38-98.57-.1.12-.1.1-37.62,37.64-37.64-37.64-.08-.12-.13-.1H835.75l87.14,87.14L1010,293.7Zm53.45,55.73.1-.12V300.74l-85.81,85.82,85.81,85.81V425l-.12-.08-.1-.12-37.65-37.62,37.65-37.64Z"/><path id="OUTLINE_2" data-name="OUTLINE 2" class="cls-1" d="M464.3,573v94l103.05,92.78H774.71V946.22h-310l-.38-.35-206.52-186-.75-.66V480.68l.77-.68L464.3,294.06l.61-.55h309.8V480H567.57Z"/><path id="OUTLINE_1" data-name="OUTLINE 1" class="cls-1" d="M782.81,954.31H461.59l-2.69-2.41L251.64,765.28l-2.7-2.41V477.07l3.47-3.11L461.8,285.42h321V488.09H570.68l-98.28,88.5v86.75l98.05,88.3H782.81Zm-315-16.19H766.62V767.83H564.24l-108-97.28V569.38L564.46,471.9H766.62V301.61H468L265.13,484.29V755.64Z"/><g id="C_x"><polygon class="cls-2" points="775.21 298.42 775.21 475.51 591.3 364.54 775.21 298.42"/><polygon class="cls-3" points="763.45 294.05 582.35 359.15 474.47 294.05 763.45 294.05"/><polygon class="cls-4" points="564.5 483.75 468.03 570.61 266.9 481.14 514.25 392.24 564.5 483.75"/><polygon class="cls-4" points="767.84 480.53 571.95 480.53 521.95 389.47 581.46 368.08 767.84 480.53"/><polygon class="cls-5" points="765.96 760.27 580.43 872.22 523 851.58 573.12 760.27 765.96 760.27"/><polygon class="cls-5" points="775.21 764.15 775.21 942.24 590.25 875.76 775.21 764.15"/><polygon class="cls-6" points="763.84 946.75 472.61 946.75 581.34 881.14 763.84 946.75"/><polygon class="cls-7" points="511.34 855.99 463.78 942.6 461.86 943.76 266.74 768.06 511.34 855.99"/><polygon class="cls-8" points="565.19 757.88 515.29 848.8 266.43 759.36 467.51 669.93 565.19 757.88"/><polygon class="cls-9" points="464.8 578.03 464.8 662.26 257.53 754.44 257.53 485.86 464.8 578.03"/><polygon class="cls-3" points="510.31 385.06 267.34 472.38 462.02 297.11 510.31 385.06"/><polygon class="cls-2" points="572.54 362.67 518 382.28 474.89 303.76 572.54 362.67"/><polygon class="cls-7" points="571.5 877.6 477.59 934.27 519.05 858.76 571.5 877.6"/></g></g></g></g></svg>